<?xml version="1.0" encoding="UTF-8"?>
<svg id="Layer_1" xmlns="http://www.w3.org/2000/svg" width="223.99" height="129.96" viewBox="0 0 223.99 129.96">
  <defs>
    <style>
      .cls-1 {
        fill: #30af5b;
      }
    </style>
  </defs>
  <path class="cls-1" d="M135.11,106.21h-20.76c-7.01,0-13.48-3.74-16.99-9.81l-22.95-39.75-11.53,6.66c-13.26,7.65-30.21,3.11-37.86-10.15l-.9-1.56c-.77-1.33-.31-3.03,1.02-3.79l33.13-19.13,1.4-.81c14.68-8.47,33.45-3.44,41.92,11.24l.81,1.4,35.13,61.55c1.06,1.85-.28,4.15-2.41,4.15Z"/>
  <path class="cls-1" d="M200.24,64.98h0c0,23.95-14.79,41.59-37.76,41.59h-5.56c-1.28,0-2.46-.68-3.1-1.79l-14.52-25.13c-1.38-2.39.34-5.37,3.1-5.37h16.25c5.13,0,9.29-4.16,9.29-9.29h0c0-5.13-4.16-9.29-9.29-9.29h-31.1c-1.28,0-2.46-.68-3.1-1.79l-9.91-17.16-4.62-7.99c-1.38-2.39.34-5.37,3.1-5.37h45.62c22.97,0,41.59,18.62,41.59,41.59Z"/>
</svg>