<?xml version="1.0" encoding="UTF-8"?>
<svg id="Layer_1" xmlns="http://www.w3.org/2000/svg" width="300" height="300" viewBox="0 0 300 300">
  <defs>
    <style>
      .cls-1 {
        fill: #0b0b0d;
      }

      .cls-2 {
        fill: #b5ff6d;
      }
    </style>
  </defs>
  <circle class="cls-1" cx="150" cy="150" r="150"/>
  <g>
    <path class="cls-2" d="M173.82,192.47h-21.38c-7.22,0-13.89-3.85-17.5-10.1l-23.64-40.95-11.88,6.86c-13.66,7.88-31.12,3.2-39-10.45l-.93-1.61c-.79-1.37-.32-3.12,1.05-3.91l34.13-19.71,1.44-.83c15.12-8.73,34.45-3.54,43.18,11.58l.83,1.44,36.19,63.4c1.09,1.91-.29,4.28-2.48,4.28Z"/>
    <path class="cls-2" d="M240.9,150h0c0,24.67-15.24,42.84-38.89,42.84h-5.73c-1.32,0-2.53-.7-3.19-1.84l-14.95-25.89c-1.42-2.46.35-5.53,3.19-5.53h16.74c5.28,0,9.57-4.28,9.57-9.57h0c0-5.28-4.28-9.57-9.57-9.57h-32.04c-1.32,0-2.53-.7-3.19-1.84l-10.21-17.68-4.75-8.23c-1.42-2.46.35-5.53,3.19-5.53h47c23.66,0,42.84,19.18,42.84,42.84Z"/>
  </g>
</svg>